<svg width="118" height="36" viewBox="0 0 118 36" fill="none" xmlns="http://www.w3.org/2000/svg">
<g filter="url(#filter0_d_112_1185)">
<mask id="path-1-inside-1_112_1185" fill="white">
<path d="M2 5C2 2.79086 3.79086 1 6 1H112C114.209 1 116 2.79086 116 5V29C116 31.2091 114.209 33 112 33H6C3.79086 33 2 31.2091 2 29V5Z"/>
</mask>
<path d="M2 5C2 2.79086 3.79086 1 6 1H112C114.209 1 116 2.79086 116 5V29C116 31.2091 114.209 33 112 33H6C3.79086 33 2 31.2091 2 29V5Z" fill="#F6FAFF"/>
<path d="M6 2H112V0H6V2ZM115 5V29H117V5H115ZM112 32H6V34H112V32ZM3 29V5H1V29H3ZM6 32C4.34314 32 3 30.6569 3 29H1C1 31.7614 3.23857 34 6 34V32ZM115 29C115 30.6569 113.657 32 112 32V34C114.761 34 117 31.7614 117 29H115ZM112 2C113.657 2 115 3.34315 115 5H117C117 2.23858 114.761 0 112 0V2ZM6 0C3.23858 0 1 2.23858 1 5H3C3 3.34315 4.34315 2 6 2V0Z" fill="#2388FF" mask="url(#path-1-inside-1_112_1185)"/>
<path d="M23.125 19C23.125 19.3536 22.9933 19.6928 22.7589 19.9428C22.5245 20.1929 22.2065 20.3333 21.875 20.3333H14.375L11.875 23V12.3333C11.875 11.9797 12.0067 11.6406 12.2411 11.3905C12.4755 11.1405 12.7935 11 13.125 11H21.875C22.2065 11 22.5245 11.1405 22.7589 11.3905C22.9933 11.6406 23.125 11.9797 23.125 12.3333V19Z" stroke="#2388FF" stroke-width="1.25" stroke-linecap="round" stroke-linejoin="round"/>
<path d="M32.9783 21V12.2727H36.1744C36.7937 12.2727 37.3065 12.375 37.7127 12.5795C38.119 12.7812 38.4229 13.0554 38.6246 13.402C38.8263 13.7457 38.9272 14.1335 38.9272 14.5653C38.9272 14.929 38.8604 15.2358 38.7269 15.4858C38.5934 15.733 38.4144 15.9318 38.19 16.0824C37.9684 16.2301 37.7241 16.3381 37.457 16.4062V16.4915C37.7468 16.5057 38.0295 16.5994 38.305 16.7727C38.5835 16.9432 38.8136 17.1861 38.9954 17.5014C39.1772 17.8168 39.2681 18.2003 39.2681 18.652C39.2681 19.098 39.163 19.4986 38.9528 19.8537C38.7454 20.206 38.4244 20.4858 37.9897 20.6932C37.555 20.8977 36.9996 21 36.3235 21H32.9783ZM34.2951 19.8707H36.1957C36.8263 19.8707 37.2781 19.7486 37.5508 19.5043C37.8235 19.2599 37.9599 18.9545 37.9599 18.5881C37.9599 18.3125 37.8903 18.0597 37.7511 17.8295C37.6119 17.5994 37.413 17.4162 37.1545 17.2798C36.8988 17.1435 36.5948 17.0753 36.2425 17.0753H34.2951V19.8707ZM34.2951 16.0483H36.0593C36.3548 16.0483 36.6204 15.9915 36.8562 15.8778C37.0948 15.7642 37.2837 15.6051 37.4229 15.4006C37.565 15.1932 37.636 14.9489 37.636 14.6676C37.636 14.3068 37.5096 14.0043 37.2567 13.7599C37.0039 13.5156 36.6161 13.3935 36.0934 13.3935H34.2951V16.0483ZM42.6325 21.1449C42.2177 21.1449 41.8427 21.0682 41.5075 20.9148C41.1722 20.7585 40.9066 20.5327 40.7106 20.2372C40.5174 19.9418 40.4208 19.5795 40.4208 19.1506C40.4208 18.7812 40.4918 18.4773 40.6339 18.2386C40.7759 18 40.9677 17.8111 41.2092 17.6719C41.4506 17.5327 41.7205 17.4276 42.0188 17.3565C42.3171 17.2855 42.6211 17.2315 42.9308 17.1946C43.3228 17.1491 43.641 17.1122 43.8853 17.0838C44.1296 17.0526 44.3072 17.0028 44.418 16.9347C44.5288 16.8665 44.5842 16.7557 44.5842 16.6023V16.5724C44.5842 16.2003 44.479 15.9119 44.2688 15.7074C44.0614 15.5028 43.7518 15.4006 43.3398 15.4006C42.9109 15.4006 42.5728 15.4957 42.3256 15.6861C42.0813 15.8736 41.9123 16.0824 41.8185 16.3125L40.6211 16.0398C40.7631 15.642 40.9705 15.321 41.2433 15.0767C41.5188 14.8295 41.8356 14.6506 42.1935 14.5398C42.5515 14.4261 42.9279 14.3693 43.3228 14.3693C43.5842 14.3693 43.8612 14.4006 44.1538 14.4631C44.4492 14.5227 44.7248 14.6335 44.9805 14.7955C45.239 14.9574 45.4506 15.1889 45.6154 15.4901C45.7802 15.7884 45.8626 16.1761 45.8626 16.6534V21H44.6183V20.1051H44.5671C44.4847 20.2699 44.3612 20.4318 44.1964 20.5909C44.0316 20.75 43.82 20.8821 43.5614 20.9872C43.3029 21.0923 42.9933 21.1449 42.6325 21.1449ZM42.9094 20.1222C43.2617 20.1222 43.5629 20.0526 43.8129 19.9134C44.0657 19.7741 44.2575 19.5923 44.3881 19.3679C44.5217 19.1406 44.5884 18.8977 44.5884 18.6392V17.7955C44.543 17.8409 44.4549 17.8835 44.3242 17.9233C44.1964 17.9602 44.0501 17.9929 43.8853 18.0213C43.7205 18.0469 43.56 18.071 43.4038 18.0938C43.2475 18.1136 43.1168 18.1307 43.0117 18.1449C42.7646 18.1761 42.5387 18.2287 42.3342 18.3026C42.1325 18.3764 41.9705 18.483 41.8484 18.6222C41.729 18.7585 41.6694 18.9403 41.6694 19.1676C41.6694 19.483 41.7859 19.7216 42.0188 19.8835C42.2518 20.0426 42.5487 20.1222 42.9094 20.1222ZM50.3168 21.1321C49.6832 21.1321 49.1378 20.9886 48.6804 20.7017C48.2259 20.4119 47.8764 20.0128 47.6321 19.5043C47.3878 18.9957 47.2656 18.4134 47.2656 17.7571C47.2656 17.0923 47.3906 16.5057 47.6406 15.9972C47.8906 15.4858 48.2429 15.0866 48.6974 14.7997C49.152 14.5128 49.6875 14.3693 50.304 14.3693C50.8011 14.3693 51.2443 14.4616 51.6335 14.6463C52.0227 14.8281 52.3366 15.0838 52.5753 15.4134C52.8168 15.7429 52.9602 16.1278 53.0057 16.5682H51.7656C51.6974 16.2614 51.5412 15.9972 51.2969 15.7756C51.0554 15.554 50.7315 15.4432 50.3253 15.4432C49.9702 15.4432 49.6591 15.5369 49.392 15.7244C49.1278 15.9091 48.9219 16.1733 48.7741 16.517C48.6264 16.858 48.5526 17.2614 48.5526 17.7273C48.5526 18.2045 48.625 18.6165 48.7699 18.9631C48.9148 19.3097 49.1193 19.5781 49.3835 19.7685C49.6506 19.9588 49.9645 20.054 50.3253 20.054C50.5668 20.054 50.7855 20.0099 50.9815 19.9219C51.1804 19.831 51.3466 19.7017 51.4801 19.5341C51.6165 19.3665 51.7116 19.1648 51.7656 18.929H53.0057C52.9602 19.3523 52.8224 19.7301 52.5923 20.0625C52.3622 20.3949 52.054 20.6562 51.6676 20.8466C51.2841 21.0369 50.8338 21.1321 50.3168 21.1321ZM55.5401 18.7798L55.5316 17.2244H55.7532L58.3612 14.4545H59.8867L56.9123 17.608H56.712L55.5401 18.7798ZM54.3683 21V12.2727H55.6424V21H54.3683ZM58.5018 21L56.158 17.8892L57.0359 16.9986L60.0657 21H58.5018ZM63.8956 13.4062V12.2727H70.6499V13.4062H67.9268V21H66.6143V13.4062H63.8956ZM73.848 21.1321C73.2344 21.1321 72.6989 20.9915 72.2415 20.7102C71.7841 20.429 71.429 20.0355 71.1761 19.5298C70.9233 19.0241 70.7969 18.4332 70.7969 17.7571C70.7969 17.0781 70.9233 16.4844 71.1761 15.9759C71.429 15.4673 71.7841 15.0724 72.2415 14.7912C72.6989 14.5099 73.2344 14.3693 73.848 14.3693C74.4616 14.3693 74.9972 14.5099 75.4545 14.7912C75.9119 15.0724 76.267 15.4673 76.5199 15.9759C76.7727 16.4844 76.8991 17.0781 76.8991 17.7571C76.8991 18.4332 76.7727 19.0241 76.5199 19.5298C76.267 20.0355 75.9119 20.429 75.4545 20.7102C74.9972 20.9915 74.4616 21.1321 73.848 21.1321ZM73.8523 20.0625C74.25 20.0625 74.5795 19.9574 74.8409 19.7472C75.1023 19.5369 75.2955 19.2571 75.4205 18.9077C75.5483 18.5582 75.6122 18.1733 75.6122 17.7528C75.6122 17.3352 75.5483 16.9517 75.4205 16.6023C75.2955 16.25 75.1023 15.9673 74.8409 15.7543C74.5795 15.5412 74.25 15.4347 73.8523 15.4347C73.4517 15.4347 73.1193 15.5412 72.8551 15.7543C72.5938 15.9673 72.3991 16.25 72.2713 16.6023C72.1463 16.9517 72.0838 17.3352 72.0838 17.7528C72.0838 18.1733 72.1463 18.5582 72.2713 18.9077C72.3991 19.2571 72.5938 19.5369 72.8551 19.7472C73.1193 19.9574 73.4517 20.0625 73.8523 20.0625ZM88.848 15.1108H87.5185C87.4673 14.8267 87.3722 14.5767 87.233 14.3608C87.0938 14.1449 86.9233 13.9616 86.7216 13.8111C86.5199 13.6605 86.294 13.5469 86.044 13.4702C85.7969 13.3935 85.5341 13.3551 85.2557 13.3551C84.7528 13.3551 84.3026 13.4815 83.9048 13.7344C83.5099 13.9872 83.1974 14.358 82.9673 14.8466C82.7401 15.3352 82.6264 15.9318 82.6264 16.6364C82.6264 17.3466 82.7401 17.946 82.9673 18.4347C83.1974 18.9233 83.5114 19.2926 83.9091 19.5426C84.3068 19.7926 84.7543 19.9176 85.2514 19.9176C85.527 19.9176 85.7884 19.8807 86.0355 19.8068C86.2855 19.7301 86.5114 19.6179 86.7131 19.4702C86.9148 19.3224 87.0852 19.142 87.2244 18.929C87.3665 18.7131 87.4645 18.4659 87.5185 18.1875L88.848 18.1918C88.777 18.6207 88.6392 19.0156 88.4347 19.3764C88.233 19.7344 87.973 20.044 87.6548 20.3054C87.3395 20.5639 86.9787 20.7642 86.5724 20.9062C86.1662 21.0483 85.723 21.1193 85.2429 21.1193C84.4872 21.1193 83.8139 20.9403 83.223 20.5824C82.6321 20.2216 82.1662 19.706 81.8253 19.0355C81.4872 18.3651 81.3182 17.5653 81.3182 16.6364C81.3182 15.7045 81.4886 14.9048 81.8295 14.2372C82.1705 13.5668 82.6364 13.0526 83.2273 12.6946C83.8182 12.3338 84.4901 12.1534 85.2429 12.1534C85.706 12.1534 86.1378 12.2202 86.5384 12.3537C86.9418 12.4844 87.304 12.6776 87.625 12.9332C87.946 13.1861 88.2116 13.4957 88.4219 13.8622C88.6321 14.2259 88.7741 14.642 88.848 15.1108ZM91.5955 17.1136V21H90.3214V12.2727H91.5785V15.5199H91.6594C91.8129 15.1676 92.0472 14.8878 92.3626 14.6804C92.6779 14.473 93.0898 14.3693 93.5984 14.3693C94.0472 14.3693 94.4393 14.4616 94.7745 14.6463C95.1126 14.831 95.3739 15.1065 95.5586 15.473C95.7461 15.8366 95.8398 16.2912 95.8398 16.8366V21H94.5657V16.9901C94.5657 16.5099 94.4421 16.1378 94.195 15.8736C93.9478 15.6065 93.604 15.473 93.1637 15.473C92.8626 15.473 92.5927 15.5369 92.354 15.6648C92.1183 15.7926 91.9322 15.9801 91.7958 16.2273C91.6623 16.4716 91.5955 16.767 91.5955 17.1136ZM99.445 21.1449C99.0302 21.1449 98.6552 21.0682 98.32 20.9148C97.9847 20.7585 97.7191 20.5327 97.5231 20.2372C97.3299 19.9418 97.2333 19.5795 97.2333 19.1506C97.2333 18.7812 97.3043 18.4773 97.4464 18.2386C97.5884 18 97.7802 17.8111 98.0217 17.6719C98.2631 17.5327 98.533 17.4276 98.8313 17.3565C99.1296 17.2855 99.4336 17.2315 99.7433 17.1946C100.135 17.1491 100.453 17.1122 100.698 17.0838C100.942 17.0526 101.12 17.0028 101.23 16.9347C101.341 16.8665 101.397 16.7557 101.397 16.6023V16.5724C101.397 16.2003 101.292 15.9119 101.081 15.7074C100.874 15.5028 100.564 15.4006 100.152 15.4006C99.7234 15.4006 99.3853 15.4957 99.1381 15.6861C98.8938 15.8736 98.7248 16.0824 98.631 16.3125L97.4336 16.0398C97.5756 15.642 97.783 15.321 98.0558 15.0767C98.3313 14.8295 98.6481 14.6506 99.006 14.5398C99.364 14.4261 99.7404 14.3693 100.135 14.3693C100.397 14.3693 100.674 14.4006 100.966 14.4631C101.262 14.5227 101.537 14.6335 101.793 14.7955C102.051 14.9574 102.263 15.1889 102.428 15.4901C102.593 15.7884 102.675 16.1761 102.675 16.6534V21H101.431V20.1051H101.38C101.297 20.2699 101.174 20.4318 101.009 20.5909C100.844 20.75 100.632 20.8821 100.374 20.9872C100.115 21.0923 99.8058 21.1449 99.445 21.1449ZM99.7219 20.1222C100.074 20.1222 100.375 20.0526 100.625 19.9134C100.878 19.7741 101.07 19.5923 101.201 19.3679C101.334 19.1406 101.401 18.8977 101.401 18.6392V17.7955C101.355 17.8409 101.267 17.8835 101.137 17.9233C101.009 17.9602 100.863 17.9929 100.698 18.0213C100.533 18.0469 100.373 18.071 100.216 18.0938C100.06 18.1136 99.9293 18.1307 99.8242 18.1449C99.5771 18.1761 99.3512 18.2287 99.1467 18.3026C98.945 18.3764 98.783 18.483 98.6609 18.6222C98.5415 18.7585 98.4819 18.9403 98.4819 19.1676C98.4819 19.483 98.5984 19.7216 98.8313 19.8835C99.0643 20.0426 99.3612 20.1222 99.7219 20.1222ZM107.428 14.4545V15.4773H103.852V14.4545H107.428ZM104.811 12.8864H106.085V19.0781C106.085 19.3253 106.122 19.5114 106.196 19.6364C106.27 19.7585 106.365 19.8423 106.482 19.8878C106.601 19.9304 106.73 19.9517 106.869 19.9517C106.972 19.9517 107.061 19.9446 107.138 19.9304C107.214 19.9162 107.274 19.9048 107.317 19.8963L107.547 20.9489C107.473 20.9773 107.368 21.0057 107.232 21.0341C107.095 21.0653 106.925 21.0824 106.72 21.0852C106.385 21.0909 106.072 21.0312 105.783 20.9062C105.493 20.7812 105.259 20.5881 105.08 20.3267C104.901 20.0653 104.811 19.7372 104.811 19.3423V12.8864Z" fill="#2388FF"/>
</g>
<defs>
<filter id="filter0_d_112_1185" x="0" y="0" width="118" height="36" filterUnits="userSpaceOnUse" color-interpolation-filters="sRGB">
<feFlood flood-opacity="0" result="BackgroundImageFix"/>
<feColorMatrix in="SourceAlpha" type="matrix" values="0 0 0 0 0 0 0 0 0 0 0 0 0 0 0 0 0 0 127 0" result="hardAlpha"/>
<feOffset dy="1"/>
<feGaussianBlur stdDeviation="1"/>
<feComposite in2="hardAlpha" operator="out"/>
<feColorMatrix type="matrix" values="0 0 0 0 0.1375 0 0 0 0 0.53425 0 0 0 0 1 0 0 0 0.15 0"/>
<feBlend mode="normal" in2="BackgroundImageFix" result="effect1_dropShadow_112_1185"/>
<feBlend mode="normal" in="SourceGraphic" in2="effect1_dropShadow_112_1185" result="shape"/>
</filter>
</defs>
</svg>
