<svg width="29" height="16" viewBox="0 0 29 16" fill="none" xmlns="http://www.w3.org/2000/svg">
<g opacity="0.6">
<g filter="url(#filter0_d_4_5298)">
<path d="M5.2155 3.30758C5.2155 3.60137 5.09879 3.88313 4.89105 4.09087C4.6833 4.29862 4.40154 4.41533 4.10775 4.41533C3.81396 4.41533 3.5322 4.29862 3.32445 4.09087C3.11671 3.88313 3 3.60137 3 3.30758C3 3.01378 3.11671 2.73202 3.32445 2.52428C3.5322 2.31654 3.81396 2.19983 4.10775 2.19983C4.40154 2.19983 4.6833 2.31654 4.89105 2.52428C5.09879 2.73202 5.2155 3.01378 5.2155 3.30758Z" fill="#666F8D"/>
</g>
<g filter="url(#filter1_d_4_5298)">
<path d="M5.2155 7.00069C5.2155 7.29449 5.09879 7.57625 4.89105 7.78399C4.6833 7.99173 4.40154 8.10844 4.10775 8.10844C3.81396 8.10844 3.5322 7.99173 3.32445 7.78399C3.11671 7.57625 3 7.29449 3 7.00069C3 6.7069 3.11671 6.42514 3.32445 6.2174C3.5322 6.00965 3.81396 5.89294 4.10775 5.89294C4.40154 5.89294 4.6833 6.00965 4.89105 6.2174C5.09879 6.42514 5.2155 6.7069 5.2155 7.00069Z" fill="#666F8D"/>
</g>
<g filter="url(#filter2_d_4_5298)">
<path d="M5.2155 10.6923C5.2155 10.9861 5.09879 11.2679 4.89105 11.4756C4.6833 11.6834 4.40154 11.8001 4.10775 11.8001C3.81396 11.8001 3.5322 11.6834 3.32445 11.4756C3.11671 11.2679 3 10.9861 3 10.6923C3 10.3986 3.11671 10.1168 3.32445 9.90905C3.5322 9.7013 3.81396 9.58459 4.10775 9.58459C4.40154 9.58459 4.6833 9.7013 4.89105 9.90905C5.09879 10.1168 5.2155 10.3986 5.2155 10.6923Z" fill="#666F8D"/>
</g>
<g filter="url(#filter3_d_4_5298)">
<path d="M8.903 3.30758C8.903 3.60137 8.78629 3.88313 8.57855 4.09087C8.3708 4.29862 8.08904 4.41533 7.79525 4.41533C7.50146 4.41533 7.2197 4.29862 7.01195 4.09087C6.80421 3.88313 6.6875 3.60137 6.6875 3.30758C6.6875 3.01378 6.80421 2.73202 7.01195 2.52428C7.2197 2.31654 7.50146 2.19983 7.79525 2.19983C8.08904 2.19983 8.3708 2.31654 8.57855 2.52428C8.78629 2.73202 8.903 3.01378 8.903 3.30758Z" fill="#666F8D"/>
</g>
<g filter="url(#filter4_d_4_5298)">
<path d="M8.903 7.00094C8.903 7.29473 8.78629 7.57649 8.57855 7.78423C8.3708 7.99198 8.08904 8.10869 7.79525 8.10869C7.50146 8.10869 7.2197 7.99198 7.01195 7.78423C6.80421 7.57649 6.6875 7.29473 6.6875 7.00094C6.6875 6.70714 6.80421 6.42538 7.01195 6.21764C7.2197 6.0099 7.50146 5.89319 7.79525 5.89319C8.08904 5.89319 8.3708 6.0099 8.57855 6.21764C8.78629 6.42538 8.903 6.70714 8.903 7.00094Z" fill="#666F8D"/>
</g>
<g filter="url(#filter5_d_4_5298)">
<path d="M8.903 10.6923C8.903 10.9861 8.78629 11.2679 8.57855 11.4756C8.3708 11.6834 8.08904 11.8001 7.79525 11.8001C7.50146 11.8001 7.2197 11.6834 7.01195 11.4756C6.80421 11.2679 6.6875 10.9861 6.6875 10.6923C6.6875 10.3986 6.80421 10.1168 7.01195 9.90905C7.2197 9.7013 7.50146 9.58459 7.79525 9.58459C8.08904 9.58459 8.3708 9.7013 8.57855 9.90905C8.78629 10.1168 8.903 10.3986 8.903 10.6923Z" fill="#666F8D"/>
</g>
</g>
<g filter="url(#filter6_d_4_5298)">
<path d="M17.9031 0.325H23.9031C25.9327 0.325 27.5781 1.97035 27.5781 4V10C27.5781 12.0296 25.9327 13.675 23.9031 13.675H17.9031C15.8734 13.675 14.2281 12.0296 14.2281 10V4C14.2281 1.97035 15.8734 0.325 17.9031 0.325Z" fill="url(#paint0_linear_4_5298)" stroke="url(#paint1_linear_4_5298)" stroke-width="0.65"/>
<g filter="url(#filter7_d_4_5298)">
<path d="M17.7354 7.45262L19.5456 9.26283L24.0711 4.7373" stroke="white" stroke-linecap="round" stroke-linejoin="round" shape-rendering="crispEdges"/>
</g>
</g>
<defs>
<filter id="filter0_d_4_5298" x="0" y="0.199829" width="8.21558" height="8.21545" filterUnits="userSpaceOnUse" color-interpolation-filters="sRGB">
<feFlood flood-opacity="0" result="BackgroundImageFix"/>
<feColorMatrix in="SourceAlpha" type="matrix" values="0 0 0 0 0 0 0 0 0 0 0 0 0 0 0 0 0 0 127 0" result="hardAlpha"/>
<feOffset dy="1"/>
<feGaussianBlur stdDeviation="1.5"/>
<feComposite in2="hardAlpha" operator="out"/>
<feColorMatrix type="matrix" values="0 0 0 0 0.0980392 0 0 0 0 0.129412 0 0 0 0 0.239216 0 0 0 0.1 0"/>
<feBlend mode="normal" in2="BackgroundImageFix" result="effect1_dropShadow_4_5298"/>
<feBlend mode="normal" in="SourceGraphic" in2="effect1_dropShadow_4_5298" result="shape"/>
</filter>
<filter id="filter1_d_4_5298" x="0" y="3.89294" width="8.21558" height="8.21545" filterUnits="userSpaceOnUse" color-interpolation-filters="sRGB">
<feFlood flood-opacity="0" result="BackgroundImageFix"/>
<feColorMatrix in="SourceAlpha" type="matrix" values="0 0 0 0 0 0 0 0 0 0 0 0 0 0 0 0 0 0 127 0" result="hardAlpha"/>
<feOffset dy="1"/>
<feGaussianBlur stdDeviation="1.5"/>
<feComposite in2="hardAlpha" operator="out"/>
<feColorMatrix type="matrix" values="0 0 0 0 0.0980392 0 0 0 0 0.129412 0 0 0 0 0.239216 0 0 0 0.1 0"/>
<feBlend mode="normal" in2="BackgroundImageFix" result="effect1_dropShadow_4_5298"/>
<feBlend mode="normal" in="SourceGraphic" in2="effect1_dropShadow_4_5298" result="shape"/>
</filter>
<filter id="filter2_d_4_5298" x="0" y="7.58459" width="8.21558" height="8.21545" filterUnits="userSpaceOnUse" color-interpolation-filters="sRGB">
<feFlood flood-opacity="0" result="BackgroundImageFix"/>
<feColorMatrix in="SourceAlpha" type="matrix" values="0 0 0 0 0 0 0 0 0 0 0 0 0 0 0 0 0 0 127 0" result="hardAlpha"/>
<feOffset dy="1"/>
<feGaussianBlur stdDeviation="1.5"/>
<feComposite in2="hardAlpha" operator="out"/>
<feColorMatrix type="matrix" values="0 0 0 0 0.0980392 0 0 0 0 0.129412 0 0 0 0 0.239216 0 0 0 0.1 0"/>
<feBlend mode="normal" in2="BackgroundImageFix" result="effect1_dropShadow_4_5298"/>
<feBlend mode="normal" in="SourceGraphic" in2="effect1_dropShadow_4_5298" result="shape"/>
</filter>
<filter id="filter3_d_4_5298" x="3.6875" y="0.199829" width="8.21558" height="8.21545" filterUnits="userSpaceOnUse" color-interpolation-filters="sRGB">
<feFlood flood-opacity="0" result="BackgroundImageFix"/>
<feColorMatrix in="SourceAlpha" type="matrix" values="0 0 0 0 0 0 0 0 0 0 0 0 0 0 0 0 0 0 127 0" result="hardAlpha"/>
<feOffset dy="1"/>
<feGaussianBlur stdDeviation="1.5"/>
<feComposite in2="hardAlpha" operator="out"/>
<feColorMatrix type="matrix" values="0 0 0 0 0.0980392 0 0 0 0 0.129412 0 0 0 0 0.239216 0 0 0 0.1 0"/>
<feBlend mode="normal" in2="BackgroundImageFix" result="effect1_dropShadow_4_5298"/>
<feBlend mode="normal" in="SourceGraphic" in2="effect1_dropShadow_4_5298" result="shape"/>
</filter>
<filter id="filter4_d_4_5298" x="3.6875" y="3.89319" width="8.21558" height="8.21545" filterUnits="userSpaceOnUse" color-interpolation-filters="sRGB">
<feFlood flood-opacity="0" result="BackgroundImageFix"/>
<feColorMatrix in="SourceAlpha" type="matrix" values="0 0 0 0 0 0 0 0 0 0 0 0 0 0 0 0 0 0 127 0" result="hardAlpha"/>
<feOffset dy="1"/>
<feGaussianBlur stdDeviation="1.5"/>
<feComposite in2="hardAlpha" operator="out"/>
<feColorMatrix type="matrix" values="0 0 0 0 0.0980392 0 0 0 0 0.129412 0 0 0 0 0.239216 0 0 0 0.1 0"/>
<feBlend mode="normal" in2="BackgroundImageFix" result="effect1_dropShadow_4_5298"/>
<feBlend mode="normal" in="SourceGraphic" in2="effect1_dropShadow_4_5298" result="shape"/>
</filter>
<filter id="filter5_d_4_5298" x="3.6875" y="7.58459" width="8.21558" height="8.21545" filterUnits="userSpaceOnUse" color-interpolation-filters="sRGB">
<feFlood flood-opacity="0" result="BackgroundImageFix"/>
<feColorMatrix in="SourceAlpha" type="matrix" values="0 0 0 0 0 0 0 0 0 0 0 0 0 0 0 0 0 0 127 0" result="hardAlpha"/>
<feOffset dy="1"/>
<feGaussianBlur stdDeviation="1.5"/>
<feComposite in2="hardAlpha" operator="out"/>
<feColorMatrix type="matrix" values="0 0 0 0 0.0980392 0 0 0 0 0.129412 0 0 0 0 0.239216 0 0 0 0.1 0"/>
<feBlend mode="normal" in2="BackgroundImageFix" result="effect1_dropShadow_4_5298"/>
<feBlend mode="normal" in="SourceGraphic" in2="effect1_dropShadow_4_5298" result="shape"/>
</filter>
<filter id="filter6_d_4_5298" x="12.9031" y="0" width="16" height="16" filterUnits="userSpaceOnUse" color-interpolation-filters="sRGB">
<feFlood flood-opacity="0" result="BackgroundImageFix"/>
<feColorMatrix in="SourceAlpha" type="matrix" values="0 0 0 0 0 0 0 0 0 0 0 0 0 0 0 0 0 0 127 0" result="hardAlpha"/>
<feOffset dy="1"/>
<feGaussianBlur stdDeviation="0.5"/>
<feComposite in2="hardAlpha" operator="out"/>
<feColorMatrix type="matrix" values="0 0 0 0 0 0 0 0 0 0 0 0 0 0 0 0 0 0 0.1 0"/>
<feBlend mode="normal" in2="BackgroundImageFix" result="effect1_dropShadow_4_5298"/>
<feBlend mode="normal" in="SourceGraphic" in2="effect1_dropShadow_4_5298" result="shape"/>
</filter>
<filter id="filter7_d_4_5298" x="14.2354" y="2.2373" width="13.3357" height="11.5255" filterUnits="userSpaceOnUse" color-interpolation-filters="sRGB">
<feFlood flood-opacity="0" result="BackgroundImageFix"/>
<feColorMatrix in="SourceAlpha" type="matrix" values="0 0 0 0 0 0 0 0 0 0 0 0 0 0 0 0 0 0 127 0" result="hardAlpha"/>
<feOffset dy="1"/>
<feGaussianBlur stdDeviation="1.5"/>
<feComposite in2="hardAlpha" operator="out"/>
<feColorMatrix type="matrix" values="0 0 0 0 0.0980392 0 0 0 0 0.129412 0 0 0 0 0.239216 0 0 0 0.1 0"/>
<feBlend mode="normal" in2="BackgroundImageFix" result="effect1_dropShadow_4_5298"/>
<feBlend mode="normal" in="SourceGraphic" in2="effect1_dropShadow_4_5298" result="shape"/>
</filter>
<linearGradient id="paint0_linear_4_5298" x1="20.9031" y1="0" x2="20.9031" y2="14" gradientUnits="userSpaceOnUse">
<stop stop-color="#2B7AFB"/>
<stop offset="1" stop-color="#2174FD"/>
<stop offset="1" stop-color="#213BFD"/>
</linearGradient>
<linearGradient id="paint1_linear_4_5298" x1="20.9031" y1="0" x2="20.9031" y2="14" gradientUnits="userSpaceOnUse">
<stop stop-color="#174BD2"/>
<stop offset="1" stop-color="#1B5AC2"/>
</linearGradient>
</defs>
</svg>
