<svg width="31" height="20" viewBox="0 0 31 20" fill="none" xmlns="http://www.w3.org/2000/svg">
<g opacity="0.6">
<g filter="url(#filter0_d_4_5277)">
<path d="M5.2155 5.30758C5.2155 5.60137 5.09879 5.88313 4.89105 6.09087C4.6833 6.29862 4.40154 6.41533 4.10775 6.41533C3.81396 6.41533 3.5322 6.29862 3.32445 6.09087C3.11671 5.88313 3 5.60137 3 5.30758C3 5.01378 3.11671 4.73202 3.32445 4.52428C3.5322 4.31654 3.81396 4.19983 4.10775 4.19983C4.40154 4.19983 4.6833 4.31654 4.89105 4.52428C5.09879 4.73202 5.2155 5.01378 5.2155 5.30758Z" fill="#666F8D"/>
</g>
<g filter="url(#filter1_d_4_5277)">
<path d="M5.2155 9.00069C5.2155 9.29449 5.09879 9.57625 4.89105 9.78399C4.6833 9.99173 4.40154 10.1084 4.10775 10.1084C3.81396 10.1084 3.5322 9.99173 3.32445 9.78399C3.11671 9.57625 3 9.29449 3 9.00069C3 8.7069 3.11671 8.42514 3.32445 8.2174C3.5322 8.00965 3.81396 7.89294 4.10775 7.89294C4.40154 7.89294 4.6833 8.00965 4.89105 8.2174C5.09879 8.42514 5.2155 8.7069 5.2155 9.00069Z" fill="#666F8D"/>
</g>
<g filter="url(#filter2_d_4_5277)">
<path d="M5.2155 12.6923C5.2155 12.9861 5.09879 13.2679 4.89105 13.4756C4.6833 13.6834 4.40154 13.8001 4.10775 13.8001C3.81396 13.8001 3.5322 13.6834 3.32445 13.4756C3.11671 13.2679 3 12.9861 3 12.6923C3 12.3986 3.11671 12.1168 3.32445 11.909C3.5322 11.7013 3.81396 11.5846 4.10775 11.5846C4.40154 11.5846 4.6833 11.7013 4.89105 11.909C5.09879 12.1168 5.2155 12.3986 5.2155 12.6923Z" fill="#666F8D"/>
</g>
<g filter="url(#filter3_d_4_5277)">
<path d="M8.903 5.30758C8.903 5.60137 8.78629 5.88313 8.57855 6.09087C8.3708 6.29862 8.08904 6.41533 7.79525 6.41533C7.50146 6.41533 7.2197 6.29862 7.01195 6.09087C6.80421 5.88313 6.6875 5.60137 6.6875 5.30758C6.6875 5.01378 6.80421 4.73202 7.01195 4.52428C7.2197 4.31654 7.50146 4.19983 7.79525 4.19983C8.08904 4.19983 8.3708 4.31654 8.57855 4.52428C8.78629 4.73202 8.903 5.01378 8.903 5.30758Z" fill="#666F8D"/>
</g>
<g filter="url(#filter4_d_4_5277)">
<path d="M8.903 9.00094C8.903 9.29473 8.78629 9.57649 8.57855 9.78423C8.3708 9.99198 8.08904 10.1087 7.79525 10.1087C7.50146 10.1087 7.2197 9.99198 7.01195 9.78423C6.80421 9.57649 6.6875 9.29473 6.6875 9.00094C6.6875 8.70714 6.80421 8.42538 7.01195 8.21764C7.2197 8.0099 7.50146 7.89319 7.79525 7.89319C8.08904 7.89319 8.3708 8.0099 8.57855 8.21764C8.78629 8.42538 8.903 8.70714 8.903 9.00094Z" fill="#666F8D"/>
</g>
<g filter="url(#filter5_d_4_5277)">
<path d="M8.903 12.6923C8.903 12.9861 8.78629 13.2679 8.57855 13.4756C8.3708 13.6834 8.08904 13.8001 7.79525 13.8001C7.50146 13.8001 7.2197 13.6834 7.01195 13.4756C6.80421 13.2679 6.6875 12.9861 6.6875 12.6923C6.6875 12.3986 6.80421 12.1168 7.01195 11.909C7.2197 11.7013 7.50146 11.5846 7.79525 11.5846C8.08904 11.5846 8.3708 11.7013 8.57855 11.909C8.78629 12.1168 8.903 12.3986 8.903 12.6923Z" fill="#666F8D"/>
</g>
</g>
<g opacity="0.5" filter="url(#filter6_d_4_5277)">
<g clip-path="url(#clip0_4_5277)">
<path d="M13.9031 6C13.9031 3.79086 15.6939 2 17.9031 2H23.9031C26.1122 2 27.9031 3.79086 27.9031 6V12C27.9031 14.2091 26.1122 16 23.9031 16H17.9031C15.6939 16 13.9031 14.2091 13.9031 12V6Z" fill="white"/>
</g>
<path d="M14.4031 6C14.4031 4.067 15.9701 2.5 17.9031 2.5H23.9031C25.8361 2.5 27.4031 4.067 27.4031 6V12C27.4031 13.933 25.8361 15.5 23.9031 15.5H17.9031C15.9701 15.5 14.4031 13.933 14.4031 12V6Z" stroke="#666F8D"/>
</g>
<defs>
<filter id="filter0_d_4_5277" x="0" y="2.19983" width="8.21558" height="8.21545" filterUnits="userSpaceOnUse" color-interpolation-filters="sRGB">
<feFlood flood-opacity="0" result="BackgroundImageFix"/>
<feColorMatrix in="SourceAlpha" type="matrix" values="0 0 0 0 0 0 0 0 0 0 0 0 0 0 0 0 0 0 127 0" result="hardAlpha"/>
<feOffset dy="1"/>
<feGaussianBlur stdDeviation="1.5"/>
<feComposite in2="hardAlpha" operator="out"/>
<feColorMatrix type="matrix" values="0 0 0 0 0.0980392 0 0 0 0 0.129412 0 0 0 0 0.239216 0 0 0 0.1 0"/>
<feBlend mode="normal" in2="BackgroundImageFix" result="effect1_dropShadow_4_5277"/>
<feBlend mode="normal" in="SourceGraphic" in2="effect1_dropShadow_4_5277" result="shape"/>
</filter>
<filter id="filter1_d_4_5277" x="0" y="5.89294" width="8.21558" height="8.21545" filterUnits="userSpaceOnUse" color-interpolation-filters="sRGB">
<feFlood flood-opacity="0" result="BackgroundImageFix"/>
<feColorMatrix in="SourceAlpha" type="matrix" values="0 0 0 0 0 0 0 0 0 0 0 0 0 0 0 0 0 0 127 0" result="hardAlpha"/>
<feOffset dy="1"/>
<feGaussianBlur stdDeviation="1.5"/>
<feComposite in2="hardAlpha" operator="out"/>
<feColorMatrix type="matrix" values="0 0 0 0 0.0980392 0 0 0 0 0.129412 0 0 0 0 0.239216 0 0 0 0.1 0"/>
<feBlend mode="normal" in2="BackgroundImageFix" result="effect1_dropShadow_4_5277"/>
<feBlend mode="normal" in="SourceGraphic" in2="effect1_dropShadow_4_5277" result="shape"/>
</filter>
<filter id="filter2_d_4_5277" x="0" y="9.58459" width="8.21558" height="8.21545" filterUnits="userSpaceOnUse" color-interpolation-filters="sRGB">
<feFlood flood-opacity="0" result="BackgroundImageFix"/>
<feColorMatrix in="SourceAlpha" type="matrix" values="0 0 0 0 0 0 0 0 0 0 0 0 0 0 0 0 0 0 127 0" result="hardAlpha"/>
<feOffset dy="1"/>
<feGaussianBlur stdDeviation="1.5"/>
<feComposite in2="hardAlpha" operator="out"/>
<feColorMatrix type="matrix" values="0 0 0 0 0.0980392 0 0 0 0 0.129412 0 0 0 0 0.239216 0 0 0 0.1 0"/>
<feBlend mode="normal" in2="BackgroundImageFix" result="effect1_dropShadow_4_5277"/>
<feBlend mode="normal" in="SourceGraphic" in2="effect1_dropShadow_4_5277" result="shape"/>
</filter>
<filter id="filter3_d_4_5277" x="3.6875" y="2.19983" width="8.21558" height="8.21545" filterUnits="userSpaceOnUse" color-interpolation-filters="sRGB">
<feFlood flood-opacity="0" result="BackgroundImageFix"/>
<feColorMatrix in="SourceAlpha" type="matrix" values="0 0 0 0 0 0 0 0 0 0 0 0 0 0 0 0 0 0 127 0" result="hardAlpha"/>
<feOffset dy="1"/>
<feGaussianBlur stdDeviation="1.5"/>
<feComposite in2="hardAlpha" operator="out"/>
<feColorMatrix type="matrix" values="0 0 0 0 0.0980392 0 0 0 0 0.129412 0 0 0 0 0.239216 0 0 0 0.1 0"/>
<feBlend mode="normal" in2="BackgroundImageFix" result="effect1_dropShadow_4_5277"/>
<feBlend mode="normal" in="SourceGraphic" in2="effect1_dropShadow_4_5277" result="shape"/>
</filter>
<filter id="filter4_d_4_5277" x="3.6875" y="5.89319" width="8.21558" height="8.21545" filterUnits="userSpaceOnUse" color-interpolation-filters="sRGB">
<feFlood flood-opacity="0" result="BackgroundImageFix"/>
<feColorMatrix in="SourceAlpha" type="matrix" values="0 0 0 0 0 0 0 0 0 0 0 0 0 0 0 0 0 0 127 0" result="hardAlpha"/>
<feOffset dy="1"/>
<feGaussianBlur stdDeviation="1.5"/>
<feComposite in2="hardAlpha" operator="out"/>
<feColorMatrix type="matrix" values="0 0 0 0 0.0980392 0 0 0 0 0.129412 0 0 0 0 0.239216 0 0 0 0.1 0"/>
<feBlend mode="normal" in2="BackgroundImageFix" result="effect1_dropShadow_4_5277"/>
<feBlend mode="normal" in="SourceGraphic" in2="effect1_dropShadow_4_5277" result="shape"/>
</filter>
<filter id="filter5_d_4_5277" x="3.6875" y="9.58459" width="8.21558" height="8.21545" filterUnits="userSpaceOnUse" color-interpolation-filters="sRGB">
<feFlood flood-opacity="0" result="BackgroundImageFix"/>
<feColorMatrix in="SourceAlpha" type="matrix" values="0 0 0 0 0 0 0 0 0 0 0 0 0 0 0 0 0 0 127 0" result="hardAlpha"/>
<feOffset dy="1"/>
<feGaussianBlur stdDeviation="1.5"/>
<feComposite in2="hardAlpha" operator="out"/>
<feColorMatrix type="matrix" values="0 0 0 0 0.0980392 0 0 0 0 0.129412 0 0 0 0 0.239216 0 0 0 0.1 0"/>
<feBlend mode="normal" in2="BackgroundImageFix" result="effect1_dropShadow_4_5277"/>
<feBlend mode="normal" in="SourceGraphic" in2="effect1_dropShadow_4_5277" result="shape"/>
</filter>
<filter id="filter6_d_4_5277" x="10.9031" y="0" width="20" height="20" filterUnits="userSpaceOnUse" color-interpolation-filters="sRGB">
<feFlood flood-opacity="0" result="BackgroundImageFix"/>
<feColorMatrix in="SourceAlpha" type="matrix" values="0 0 0 0 0 0 0 0 0 0 0 0 0 0 0 0 0 0 127 0" result="hardAlpha"/>
<feOffset dy="1"/>
<feGaussianBlur stdDeviation="1.5"/>
<feComposite in2="hardAlpha" operator="out"/>
<feColorMatrix type="matrix" values="0 0 0 0 0.0980392 0 0 0 0 0.129412 0 0 0 0 0.239216 0 0 0 0.1 0"/>
<feBlend mode="normal" in2="BackgroundImageFix" result="effect1_dropShadow_4_5277"/>
<feBlend mode="normal" in="SourceGraphic" in2="effect1_dropShadow_4_5277" result="shape"/>
</filter>
<clipPath id="clip0_4_5277">
<path d="M13.9031 6C13.9031 3.79086 15.6939 2 17.9031 2H23.9031C26.1122 2 27.9031 3.79086 27.9031 6V12C27.9031 14.2091 26.1122 16 23.9031 16H17.9031C15.6939 16 13.9031 14.2091 13.9031 12V6Z" fill="white"/>
</clipPath>
</defs>
</svg>
