<?xml version="1.0" encoding="utf-8"?>
<svg width="17px" height="17px" viewBox="0 0 17 17" fill="none" xmlns="http://www.w3.org/2000/svg" xmlns:bx="https://boxy-svg.com"><g opacity="0.5" filter="url(#filter0_d_4_5285)" transform="matrix(1, 0, 0, 1, -2.40309, -0.5)"><g clip-path="url(#clip0_4_5285)"><path d="M3.90308 6C3.90308 3.79086 5.69394 2 7.90308 2H13.9031C16.1122 2 17.9031 3.79086 17.9031 6V12C17.9031 14.2091 16.1122 16 13.9031 16H7.90308C5.69394 16 3.90308 14.2091 3.90308 12V6Z" fill="white"/></g><path d="M4.40308 6C4.40308 4.067 5.97008 2.5 7.90308 2.5H13.9031C15.8361 2.5 17.4031 4.067 17.4031 6V12C17.4031 13.933 15.8361 15.5 13.9031 15.5H7.90308C5.97008 15.5 4.40308 13.933 4.40308 12V6Z" stroke="#666F8D"/></g><defs><filter id="filter0_d_4_5285" x="0.903076" y="0" width="20" height="20" filterUnits="userSpaceOnUse" color-interpolation-filters="sRGB"><feFlood flood-opacity="0" result="BackgroundImageFix"/><feColorMatrix in="SourceAlpha" type="matrix" values="0 0 0 0 0 0 0 0 0 0 0 0 0 0 0 0 0 0 127 0" result="hardAlpha"/><feOffset dy="1"/><feGaussianBlur stdDeviation="1.5"/><feComposite in2="hardAlpha" operator="out"/><feColorMatrix type="matrix" values="0 0 0 0 0.0980392 0 0 0 0 0.129412 0 0 0 0 0.239216 0 0 0 0.1 0"/><feBlend mode="normal" in2="BackgroundImageFix" result="effect1_dropShadow_4_5285"/><feBlend mode="normal" in="SourceGraphic" in2="effect1_dropShadow_4_5285" result="shape"/></filter><clipPath id="clip0_4_5285"><path d="M3.90308 6C3.90308 3.79086 5.69394 2 7.90308 2H13.9031C16.1122 2 17.9031 3.79086 17.9031 6V12C17.9031 14.2091 16.1122 16 13.9031 16H7.90308C5.69394 16 3.90308 14.2091 3.90308 12V6Z" fill="white"/></clipPath><bx:export><bx:file format="svg"/></bx:export></defs></svg>