<svg width="130" height="36" viewBox="0 0 130 36" fill="none" xmlns="http://www.w3.org/2000/svg">
<g filter="url(#filter0_d_4_6060)">
<mask id="path-1-inside-1_4_6060" fill="white">
<path d="M2 5C2 2.79086 3.79086 1 6 1H124C126.209 1 128 2.79086 128 5V29C128 31.2091 126.209 33 124 33H6C3.79086 33 2 31.2091 2 29V5Z"/>
</mask>
<path d="M2 5C2 2.79086 3.79086 1 6 1H124C126.209 1 128 2.79086 128 5V29C128 31.2091 126.209 33 124 33H6C3.79086 33 2 31.2091 2 29V5Z" fill="#F6FAFF"/>
<path d="M6 2H124V0H6V2ZM127 5V29H129V5H127ZM124 32H6V34H124V32ZM3 29V5H1V29H3ZM6 32C4.34315 32 3 30.6569 3 29H1C1 31.7614 3.23858 34 6 34V32ZM127 29C127 30.6569 125.657 32 124 32V34C126.761 34 129 31.7614 129 29H127ZM124 2C125.657 2 127 3.34315 127 5H129C129 2.23858 126.761 0 124 0V2ZM6 0C3.23858 0 1 2.23858 1 5H3C3 3.34315 4.34315 2 6 2V0Z" fill="#2388FF" mask="url(#path-1-inside-1_4_6060)"/>
<path d="M12.6666 22C12.6666 21.558 12.8422 21.134 13.1548 20.8215C13.4673 20.5089 13.8913 20.3333 14.3333 20.3333H23.3333" stroke="#2388FF" stroke-width="1.33333" stroke-linecap="round" stroke-linejoin="round"/>
<path d="M14.3333 10.3333H23.3333V23.6666H14.3333C13.8913 23.6666 13.4673 23.4911 13.1548 23.1785C12.8422 22.8659 12.6666 22.442 12.6666 22V12C12.6666 11.558 12.8422 11.134 13.1548 10.8215C13.4673 10.5089 13.8913 10.3333 14.3333 10.3333Z" stroke="#2388FF" stroke-width="1.33333" stroke-linecap="round" stroke-linejoin="round"/>
<path d="M33.6222 13.4062V12.2727H40.3764V13.4062H37.6534V21H36.3409V13.4062H33.6222ZM43.5746 21.1321C42.9609 21.1321 42.4254 20.9915 41.968 20.7102C41.5107 20.429 41.1555 20.0355 40.9027 19.5298C40.6499 19.0241 40.5234 18.4332 40.5234 17.7571C40.5234 17.0781 40.6499 16.4844 40.9027 15.9759C41.1555 15.4673 41.5107 15.0724 41.968 14.7912C42.4254 14.5099 42.9609 14.3693 43.5746 14.3693C44.1882 14.3693 44.7237 14.5099 45.1811 14.7912C45.6385 15.0724 45.9936 15.4673 46.2464 15.9759C46.4993 16.4844 46.6257 17.0781 46.6257 17.7571C46.6257 18.4332 46.4993 19.0241 46.2464 19.5298C45.9936 20.0355 45.6385 20.429 45.1811 20.7102C44.7237 20.9915 44.1882 21.1321 43.5746 21.1321ZM43.5788 20.0625C43.9766 20.0625 44.3061 19.9574 44.5675 19.7472C44.8288 19.5369 45.022 19.2571 45.147 18.9077C45.2749 18.5582 45.3388 18.1733 45.3388 17.7528C45.3388 17.3352 45.2749 16.9517 45.147 16.6023C45.022 16.25 44.8288 15.9673 44.5675 15.7543C44.3061 15.5412 43.9766 15.4347 43.5788 15.4347C43.1783 15.4347 42.8459 15.5412 42.5817 15.7543C42.3203 15.9673 42.1257 16.25 41.9979 16.6023C41.8729 16.9517 41.8104 17.3352 41.8104 17.7528C41.8104 18.1733 41.8729 18.5582 41.9979 18.9077C42.1257 19.2571 42.3203 19.5369 42.5817 19.7472C42.8459 19.9574 43.1783 20.0625 43.5788 20.0625ZM50.6527 12.2727H52.1484L54.4283 16.2401H54.522L56.8018 12.2727H58.2976L55.1314 17.5739V21H53.8189V17.5739L50.6527 12.2727ZM61.1175 21.1321C60.5039 21.1321 59.9684 20.9915 59.511 20.7102C59.0536 20.429 58.6985 20.0355 58.4457 19.5298C58.1928 19.0241 58.0664 18.4332 58.0664 17.7571C58.0664 17.0781 58.1928 16.4844 58.4457 15.9759C58.6985 15.4673 59.0536 15.0724 59.511 14.7912C59.9684 14.5099 60.5039 14.3693 61.1175 14.3693C61.7312 14.3693 62.2667 14.5099 62.7241 14.7912C63.1815 15.0724 63.5366 15.4673 63.7894 15.9759C64.0423 16.4844 64.1687 17.0781 64.1687 17.7571C64.1687 18.4332 64.0423 19.0241 63.7894 19.5298C63.5366 20.0355 63.1815 20.429 62.7241 20.7102C62.2667 20.9915 61.7312 21.1321 61.1175 21.1321ZM61.1218 20.0625C61.5195 20.0625 61.8491 19.9574 62.1104 19.7472C62.3718 19.5369 62.565 19.2571 62.69 18.9077C62.8178 18.5582 62.8817 18.1733 62.8817 17.7528C62.8817 17.3352 62.8178 16.9517 62.69 16.6023C62.565 16.25 62.3718 15.9673 62.1104 15.7543C61.8491 15.5412 61.5195 15.4347 61.1218 15.4347C60.7212 15.4347 60.3888 15.5412 60.1246 15.7543C59.8633 15.9673 59.6687 16.25 59.5408 16.6023C59.4158 16.9517 59.3533 17.3352 59.3533 17.7528C59.3533 18.1733 59.4158 18.5582 59.5408 18.9077C59.6687 19.2571 59.8633 19.5369 60.1246 19.7472C60.3888 19.9574 60.7212 20.0625 61.1218 20.0625ZM69.7372 18.2855V14.4545H71.0156V21H69.7628V19.8665H69.6946C69.544 20.2159 69.3026 20.5071 68.9702 20.7401C68.6406 20.9702 68.2301 21.0852 67.7386 21.0852C67.3182 21.0852 66.946 20.9929 66.6222 20.8082C66.3011 20.6207 66.0483 20.3438 65.8636 19.9773C65.6818 19.6108 65.5909 19.1577 65.5909 18.6179V14.4545H66.8651V18.4645C66.8651 18.9105 66.9886 19.2656 67.2358 19.5298C67.483 19.794 67.804 19.9261 68.1989 19.9261C68.4375 19.9261 68.6747 19.8665 68.9105 19.7472C69.1491 19.6278 69.3466 19.4474 69.5028 19.206C69.6619 18.9645 69.7401 18.6577 69.7372 18.2855ZM72.7276 21V14.4545H73.9592V15.4943H74.0273C74.1467 15.142 74.3569 14.8651 74.658 14.6634C74.962 14.4588 75.3058 14.3565 75.6893 14.3565C75.7688 14.3565 75.8626 14.3594 75.9705 14.3651C76.0813 14.3707 76.168 14.3778 76.2305 14.3864V15.6051C76.1793 15.5909 76.0884 15.5753 75.9577 15.5582C75.8271 15.5384 75.6964 15.5284 75.5657 15.5284C75.2646 15.5284 74.9961 15.5923 74.7603 15.7202C74.5273 15.8452 74.3427 16.0199 74.2063 16.2443C74.07 16.4659 74.0018 16.7187 74.0018 17.0028V21H72.7276ZM80.6112 21V12.2727H81.9279V19.8665H85.8825V21H80.6112ZM87.2823 21V14.4545H88.5565V21H87.2823ZM87.9258 13.4446C87.7042 13.4446 87.5138 13.3707 87.3548 13.223C87.1985 13.0724 87.1204 12.8935 87.1204 12.6861C87.1204 12.4759 87.1985 12.2969 87.3548 12.1491C87.5138 11.9986 87.7042 11.9233 87.9258 11.9233C88.1474 11.9233 88.3363 11.9986 88.4925 12.1491C88.6516 12.2969 88.7312 12.4759 88.7312 12.6861C88.7312 12.8935 88.6516 13.0724 88.4925 13.223C88.3363 13.3707 88.1474 13.4446 87.9258 13.4446ZM90.3729 21V12.2727H91.647V15.5156H91.7237C91.7976 15.3793 91.9041 15.2216 92.0433 15.0426C92.1825 14.8636 92.3757 14.7074 92.6229 14.5739C92.87 14.4375 93.1967 14.3693 93.603 14.3693C94.1314 14.3693 94.603 14.5028 95.0178 14.7699C95.4325 15.0369 95.7578 15.4219 95.9936 15.9247C96.2322 16.4276 96.3516 17.0327 96.3516 17.7401C96.3516 18.4474 96.2337 19.054 95.9979 19.5597C95.7621 20.0625 95.4382 20.4503 95.0263 20.723C94.6143 20.9929 94.1442 21.1278 93.6158 21.1278C93.218 21.1278 92.8928 21.0611 92.6399 20.9276C92.3899 20.794 92.1939 20.6378 92.0518 20.4588C91.9098 20.2798 91.8004 20.1207 91.7237 19.9815H91.6172V21H90.3729ZM91.6214 17.7273C91.6214 18.1875 91.6882 18.5909 91.8217 18.9375C91.9553 19.2841 92.1484 19.5554 92.4013 19.7514C92.6541 19.9446 92.9638 20.0412 93.3303 20.0412C93.7109 20.0412 94.0291 19.9403 94.2848 19.7386C94.5405 19.5341 94.7337 19.2571 94.8643 18.9077C94.9979 18.5582 95.0646 18.1648 95.0646 17.7273C95.0646 17.2955 94.9993 16.9077 94.8686 16.5639C94.7408 16.2202 94.5476 15.9489 94.2891 15.75C94.0334 15.5511 93.7138 15.4517 93.3303 15.4517C92.9609 15.4517 92.6484 15.5469 92.3928 15.7372C92.1399 15.9276 91.9482 16.1932 91.8175 16.5341C91.6868 16.875 91.6214 17.2727 91.6214 17.7273ZM97.7823 21V14.4545H99.0138V15.4943H99.082C99.2013 15.142 99.4116 14.8651 99.7127 14.6634C100.017 14.4588 100.36 14.3565 100.744 14.3565C100.824 14.3565 100.917 14.3594 101.025 14.3651C101.136 14.3707 101.223 14.3778 101.285 14.3864V15.6051C101.234 15.5909 101.143 15.5753 101.012 15.5582C100.882 15.5384 100.751 15.5284 100.62 15.5284C100.319 15.5284 100.051 15.5923 99.815 15.7202C99.582 15.8452 99.3974 16.0199 99.261 16.2443C99.1246 16.4659 99.0565 16.7187 99.0565 17.0028V21H97.7823ZM104.234 21.1449C103.819 21.1449 103.444 21.0682 103.109 20.9148C102.774 20.7585 102.508 20.5327 102.312 20.2372C102.119 19.9418 102.022 19.5795 102.022 19.1506C102.022 18.7812 102.093 18.4773 102.235 18.2386C102.377 18 102.569 17.8111 102.811 17.6719C103.052 17.5327 103.322 17.4276 103.62 17.3565C103.919 17.2855 104.223 17.2315 104.532 17.1946C104.924 17.1491 105.243 17.1122 105.487 17.0838C105.731 17.0526 105.909 17.0028 106.02 16.9347C106.13 16.8665 106.186 16.7557 106.186 16.6023V16.5724C106.186 16.2003 106.081 15.9119 105.87 15.7074C105.663 15.5028 105.353 15.4006 104.941 15.4006C104.512 15.4006 104.174 15.4957 103.927 15.6861C103.683 15.8736 103.514 16.0824 103.42 16.3125L102.223 16.0398C102.365 15.642 102.572 15.321 102.845 15.0767C103.12 14.8295 103.437 14.6506 103.795 14.5398C104.153 14.4261 104.529 14.3693 104.924 14.3693C105.186 14.3693 105.463 14.4006 105.755 14.4631C106.051 14.5227 106.326 14.6335 106.582 14.7955C106.841 14.9574 107.052 15.1889 107.217 15.4901C107.382 15.7884 107.464 16.1761 107.464 16.6534V21H106.22V20.1051H106.169C106.086 20.2699 105.963 20.4318 105.798 20.5909C105.633 20.75 105.422 20.8821 105.163 20.9872C104.904 21.0923 104.595 21.1449 104.234 21.1449ZM104.511 20.1222C104.863 20.1222 105.164 20.0526 105.414 19.9134C105.667 19.7741 105.859 19.5923 105.99 19.3679C106.123 19.1406 106.19 18.8977 106.19 18.6392V17.7955C106.145 17.8409 106.056 17.8835 105.926 17.9233C105.798 17.9602 105.652 17.9929 105.487 18.0213C105.322 18.0469 105.162 18.071 105.005 18.0938C104.849 18.1136 104.718 18.1307 104.613 18.1449C104.366 18.1761 104.14 18.2287 103.936 18.3026C103.734 18.3764 103.572 18.483 103.45 18.6222C103.331 18.7585 103.271 18.9403 103.271 19.1676C103.271 19.483 103.387 19.7216 103.62 19.8835C103.853 20.0426 104.15 20.1222 104.511 20.1222ZM109.161 21V14.4545H110.393V15.4943H110.461C110.58 15.142 110.79 14.8651 111.092 14.6634C111.396 14.4588 111.739 14.3565 112.123 14.3565C112.202 14.3565 112.296 14.3594 112.404 14.3651C112.515 14.3707 112.602 14.3778 112.664 14.3864V15.6051C112.613 15.5909 112.522 15.5753 112.391 15.5582C112.261 15.5384 112.13 15.5284 111.999 15.5284C111.698 15.5284 111.43 15.5923 111.194 15.7202C110.961 15.8452 110.776 16.0199 110.64 16.2443C110.504 16.4659 110.435 16.7187 110.435 17.0028V21H109.161ZM114.771 23.4545C114.581 23.4545 114.408 23.4389 114.251 23.4077C114.095 23.3793 113.979 23.348 113.902 23.3139L114.209 22.2699C114.442 22.3324 114.649 22.3594 114.831 22.3509C115.013 22.3423 115.173 22.2741 115.312 22.1463C115.455 22.0185 115.58 21.8097 115.688 21.5199L115.845 21.0852L113.45 14.4545H114.814L116.472 19.5341H116.54L118.197 14.4545H119.565L116.868 21.8736C116.743 22.2145 116.584 22.5028 116.391 22.7386C116.197 22.9773 115.967 23.1563 115.7 23.2756C115.433 23.3949 115.124 23.4545 114.771 23.4545Z" fill="#2388FF"/>
</g>
<defs>
<filter id="filter0_d_4_6060" x="0" y="0" width="130" height="36" filterUnits="userSpaceOnUse" color-interpolation-filters="sRGB">
<feFlood flood-opacity="0" result="BackgroundImageFix"/>
<feColorMatrix in="SourceAlpha" type="matrix" values="0 0 0 0 0 0 0 0 0 0 0 0 0 0 0 0 0 0 127 0" result="hardAlpha"/>
<feOffset dy="1"/>
<feGaussianBlur stdDeviation="1"/>
<feComposite in2="hardAlpha" operator="out"/>
<feColorMatrix type="matrix" values="0 0 0 0 0.1375 0 0 0 0 0.53425 0 0 0 0 1 0 0 0 0.15 0"/>
<feBlend mode="normal" in2="BackgroundImageFix" result="effect1_dropShadow_4_6060"/>
<feBlend mode="normal" in="SourceGraphic" in2="effect1_dropShadow_4_6060" result="shape"/>
</filter>
</defs>
</svg>
